<svg width="207" height="173" viewBox="0 0 207 173" fill="none" xmlns="http://www.w3.org/2000/svg">
<path fill-rule="evenodd" clip-rule="evenodd" d="M64.5327 72.2998C65.2764 79.9029 66.0441 87.506 66.7878 95.1092C70.89 92.7587 74.9923 90.4322 79.0945 88.0817V109.956C79.0945 110.363 78.8546 111.731 79.0945 112.09C79.2865 112.378 80.7978 112.402 81.1577 112.45C83.4847 112.786 85.8117 113.074 88.1387 113.314C94.2801 113.985 100.829 114.968 106.995 114.177C112.344 113.505 117.526 111.587 122.42 109.38C124.147 108.613 125.827 107.773 127.482 106.886C127.842 106.694 129.113 106.262 129.305 105.878C129.473 105.566 129.089 104.463 129.041 104.127C128.825 102.736 128.633 101.345 128.418 99.9541L125.539 80.5505L130.985 85.995C131.416 86.4267 132.232 87.626 132.808 87.8178C133.24 87.9617 134.319 87.53 134.751 87.4341C137.846 86.8345 140.916 86.2348 144.011 85.6592C144.731 85.5153 146.362 85.5153 146.962 85.0836C147.298 84.8437 147.298 84.364 147.418 83.9323C148.161 80.9822 148.929 78.0321 149.673 75.082C149.817 74.5543 150.56 72.8754 150.368 72.3477C150.296 72.1559 149.96 72.0359 149.769 71.892C145.115 69.0379 140.46 66.2077 135.782 63.3535C133.24 61.7945 130.673 60.2355 128.13 58.6765C127.05 58.0289 125.755 56.8537 124.531 56.4699C123.788 56.254 122.684 56.4219 121.916 56.398L117.166 56.254C116.926 56.254 116.063 56.0622 115.847 56.2061C115.679 56.326 115.751 56.4939 115.679 56.7817C115.57 57.5051 115.498 58.2336 115.463 58.9643C115.415 59.5399 115.511 60.5953 115.247 61.1229C115.079 61.4587 115.295 61.3148 115.079 61.4827C114.815 61.6746 113.952 61.6026 113.64 61.6506C112.081 61.8425 110.545 62.0104 108.986 62.2022C107.139 62.4181 105.291 62.8258 103.42 62.634C100.613 62.3461 97.5907 62.3701 94.8319 61.7705C94.1122 61.6266 93.8483 61.2189 93.2965 60.6672C92.217 59.5879 91.1614 58.5086 90.0579 57.4293C89.5301 56.9016 89.746 56.9976 89.1942 57.1894C88.4985 57.4293 87.8028 58.0289 87.1791 58.4127C84.7801 59.8757 82.3811 61.3388 80.0061 62.7779L65.3963 71.6762C65.1287 71.9107 64.8396 72.1195 64.5327 72.2998Z" fill="#F5F3F1"/>
<path fill-rule="evenodd" clip-rule="evenodd" d="M204.297 73.2287C201.274 84.6694 195.228 97.1414 183.018 100.763C180.043 101.65 177.164 102.322 174.069 101.986C173.797 101.97 173.524 101.978 173.254 102.01C172.75 102.01 173.182 102.202 172.63 102.034C172.198 101.89 171.79 101.555 171.335 101.411C170.135 101.003 168.84 100.931 167.592 100.619C164.522 99.824 161.496 98.8713 158.524 97.765C157.133 97.2613 155.885 96.5418 154.59 95.8702C153.27 95.1746 151.879 94.7429 150.535 94.0953C149.48 93.5917 147.681 92.9441 146.937 91.9847C146.145 90.9773 147.249 88.8187 147.561 87.7634C148.616 84.1177 149.888 80.52 150.679 76.8024C153.438 79.9924 157.276 81.9831 161.235 83.2543C163.386 83.9471 165.593 84.4527 167.832 84.7653C169.871 85.0531 172.054 85.3889 174.093 84.9812C175.629 84.6694 177.548 83.9738 178.651 82.7986C179.035 82.3908 179.515 81.6233 179.299 80.9997C179.011 80.2322 178.22 80.592 177.764 80.0163C177.38 79.5127 177.452 78.3374 177.308 77.7378C177.094 76.6638 176.805 75.606 176.444 74.5718C175.749 72.5571 174.861 70.5184 174.669 68.3838C174.488 66.5522 174.9 64.7111 175.845 63.1311C176.276 62.3636 177.38 60.277 178.46 60.3729C179.635 60.4688 178.052 65.4577 178.004 66.465C177.788 70.4944 178.34 74.8117 180.403 78.3374C181.194 79.6805 182.346 81.2635 184.025 81.4314C185.824 81.5993 187.264 80.2082 188.127 78.7691C190.215 75.2914 189.159 70.5184 188.103 66.8488C186.808 62.3636 183.425 59.2936 181.29 55.2642C184.481 55.576 186.184 57.6147 187.816 60.181C189.664 63.1003 190.98 66.3242 191.702 69.7029C192.062 71.3579 191.822 73.0368 191.822 74.7157C191.822 75.2674 191.822 77.3301 192.733 77.2581C193.717 77.1622 194.029 74.8596 194.173 74.1401C194.509 72.5091 194.845 70.9022 195.132 69.2472C195.636 66.3691 195.852 63.395 196.452 60.5408C196.548 60.0611 196.764 58.718 197.483 59.0777C198.035 59.3656 197.963 61.4282 197.963 61.9319C198.011 63.1311 198.083 64.3064 198.083 65.5056C198.107 67.2805 197.747 69.1033 197.915 70.8542C198.035 72.0055 198.635 73.2767 199.403 71.7177C200.17 70.1826 200.314 68.2639 200.746 66.6089C201.202 64.882 201.658 63.1072 202.593 61.5721C202.857 61.1404 203.145 60.4688 203.721 60.6607C204.153 60.8046 204.464 61.812 204.584 62.1478C205.184 63.7308 205.064 65.5056 205.04 67.1846C205.059 69.2232 204.809 71.2554 204.297 73.2287ZM145.569 76.2028C145.237 76.1392 144.9 76.0991 144.562 76.0829C144.37 76.0589 144.586 75.6991 144.106 75.795C144.147 75.9058 144.215 76.0051 144.302 76.0844C144.39 76.1637 144.495 76.2208 144.61 76.2508C143.89 76.4906 143.362 75.891 142.859 75.819C142.379 75.7471 142.355 75.819 141.899 76.3227C141.395 75.6991 141.491 76.0829 141.083 76.0829C140.939 76.0829 140.915 76.3227 140.676 76.2747C140.46 76.2508 140.436 75.915 140.316 75.891C139.62 75.6751 138.924 76.7304 138.133 75.819C137.941 76.7784 135.758 75.5792 134.942 75.7471C134.054 75.915 134.438 76.2268 133.742 75.6991C133.071 75.1954 133.263 75.5312 132.471 75.9389C132.495 75.9389 132.039 76.2508 132.063 76.2508C131.511 76.1788 131.559 75.6272 130.864 75.6511C130.144 75.6751 129.832 76.2508 129.16 75.5552C129.016 76.0829 128.993 75.843 128.633 75.9869C128.544 76.0119 128.449 76.0116 128.36 75.9862C128.271 75.9608 128.191 75.9112 128.129 75.843C128.111 75.91 128.075 75.9706 128.024 76.0174C127.973 76.0642 127.909 76.0952 127.841 76.1068C127.457 76.1308 126.761 76.2028 126.426 76.0109C125.922 75.7471 126.33 75.6271 125.97 75.3393C125.802 76.1788 125.466 75.9869 124.746 76.0829C124.195 76.1308 124.075 75.9629 123.547 75.891C123.019 75.819 122.347 76.0109 121.844 76.1068C121.628 76.1308 121.34 76.2987 121.148 76.2268C120.956 76.1788 120.86 76.0349 120.764 75.9869C120.62 75.9389 120.644 75.819 120.404 75.7471C120.236 75.6991 119.948 75.867 119.78 75.891C118.581 76.0829 117.453 76.0829 116.326 75.6272C116.878 76.6105 115.03 76.0829 114.695 75.6751C114.287 76.3227 113.783 75.867 112.943 75.915C112.128 75.9629 110.928 76.2028 110.592 75.1954C110.422 75.5344 110.185 75.8361 109.897 76.0829C109.369 76.3467 109.297 75.9629 108.817 75.795C108.145 75.5792 108.289 75.9869 107.881 76.0829C107.186 76.2268 106.802 75.7231 106.178 75.4593C106.154 75.867 106.13 76.1068 105.794 76.3707C105.482 75.2434 104.379 76.4666 104.571 74.9556C104.139 75.2194 103.539 75.4353 103.419 76.0109C104.139 75.819 103.491 76.2747 103.467 76.2987C103.371 76.3467 103.06 75.915 102.988 75.843C102.96 76.0498 102.943 76.258 102.94 76.4666C102.672 76.3077 102.416 76.1315 102.172 75.9389C101.956 75.819 102.268 75.5792 101.908 75.5792C101.716 75.5792 101.524 75.9629 101.332 76.0109C101.044 76.0589 101.188 75.6511 101.044 75.6511C100.852 75.6751 100.541 75.9389 100.397 75.9389C99.9408 75.915 100.253 75.6991 99.8929 75.6032C99.2451 75.4353 99.2931 75.843 98.8373 75.9869C97.7818 76.3227 97.9017 74.7397 96.8222 75.795C96.5583 76.0589 96.4143 76.4426 96.0545 76.4186C95.3348 76.3707 95.5747 75.5072 95.7426 75.0995C95.8866 75.1714 93.1037 76.6105 93.1277 76.5626C93.1517 76.2268 93.5835 75.9629 93.1997 75.6511C92.8878 76.3467 92.552 76.3467 91.8083 76.4906C91.4484 76.5626 91.3765 76.6345 90.9926 76.4906C90.7527 76.3947 90.5848 76.0109 90.3449 75.9869C90.1923 76.1237 90.0321 76.2518 89.8651 76.3707C89.4573 76.5626 89.2174 76.3467 88.8096 76.4186C88.4737 76.4906 88.3538 76.7784 88.0179 76.6825C87.5621 76.5865 87.826 76.0589 87.2262 76.2028C87.0103 76.2507 86.8904 76.6585 86.5545 76.7304C86.0507 76.8504 85.403 76.6105 84.8752 76.7544C84.5048 76.842 84.1276 76.8982 83.7477 76.9223C83.4358 76.9463 83.5798 76.7065 83.004 76.9703L82.7641 76.3707C82.4762 76.6345 82.2124 76.8744 81.9245 77.1382C81.8674 76.9105 81.8352 76.6773 81.8285 76.4426C81.4207 76.8504 80.8929 76.9223 80.3172 76.9703C79.7599 77.0312 79.207 77.1273 78.6619 77.2581C78.4699 77.2821 77.9902 77.354 77.8462 77.2821C77.8702 77.2821 77.5583 77.1622 77.6543 77.1861C77.6063 77.1142 77.5823 77.0183 77.5343 76.9463C77.4864 76.7065 77.3184 76.7065 77.0306 76.9223C76.8866 76.8983 76.5987 76.7065 76.4548 76.7544C76.071 76.8744 76.1189 77.1861 75.7351 77.1382C75.4952 77.1142 75.3513 76.7544 75.1114 76.7304C74.7275 76.6825 74.3677 77.1382 74.0318 77.2341C75.1114 76.9463 72.6404 77.1622 73.4081 77.1861C72.9043 77.1622 72.3765 77.1382 71.9207 77.378C71.6568 77.2101 71.9687 76.8504 71.7048 76.7065C71.4649 76.5626 71.4409 76.9223 71.4169 76.9223C71.5609 76.8744 71.4889 77.1862 71.345 77.2341C70.8892 77.402 70.5053 76.9703 70.4813 76.5626C70.0975 77.1622 69.9776 76.9223 69.4018 76.9463C68.826 76.9943 68.3462 77.2821 67.7705 77.2821C66.643 77.2821 65.8753 76.8744 65.4915 75.867C66.6909 76.0109 67.9144 75.2434 69.0899 75.4113C69.4738 75.4832 69.7137 75.7711 70.0495 75.6991C70.4574 75.6271 70.7692 75.1714 71.297 75.1235C72.4725 75.0035 73.648 75.1235 74.8475 74.9316C76.282 74.6958 77.7378 74.6154 79.1896 74.6917C80.2932 74.7637 81.2048 74.356 82.3323 74.26C83.7957 74.1641 85.2591 74.1401 86.7225 74.0681C88.2098 73.9962 89.8411 73.7563 91.3285 73.8283C91.7671 73.8682 92.2076 73.8842 92.6479 73.8763C92.8399 73.8763 93.0318 73.7324 93.2237 73.7563C93.4876 73.7803 93.6075 74.0442 93.8954 74.0442C94.3752 74.0202 94.879 73.6364 95.4307 73.6364C96.3424 73.6124 97.278 73.6124 98.1896 73.5645C99.0052 73.5165 99.8689 73.3246 100.685 73.3486C101.26 73.3486 101.404 73.8523 101.74 73.9003C102.34 73.9962 105.363 72.2693 105.626 73.8043C107.21 72.725 109.321 73.6364 111.072 73.4445C113.327 73.1807 115.63 73.4206 117.885 73.3246C120.214 73.2407 122.547 73.3129 124.866 73.5405C125.805 73.6522 126.752 73.6923 127.697 73.6604C128.129 73.6364 128.609 73.5165 129.04 73.6364C129.136 73.6604 129.928 74.2121 129.832 74.236C130.264 73.8523 129.976 73.7803 130.72 73.7803C131.296 73.7563 131.847 73.9003 132.447 73.9242C133.503 73.9962 134.534 73.8523 135.59 73.8763C136.453 73.9003 137.317 74.0202 138.181 74.0442C139.116 74.0442 140.244 74.0682 140.915 74.8357L140.7 74.1161C141.755 74.1881 142.787 74.5718 143.866 74.4039C143.602 74.6678 143.314 74.8836 143.218 75.2434C143.794 75.1714 144.178 74.7637 144.778 74.7637C145.282 74.7637 145.402 75.0035 145.929 74.6917C146.001 75.0995 146.049 75.5072 146.121 75.891C146.865 75.7231 146.385 75.1714 146.433 74.6678C147.033 74.8596 147.537 74.6438 147.321 75.5072C147.033 76.0829 146.193 76.3947 145.569 76.2028ZM144.514 83.662C144.25 84.3815 142.019 83.9738 141.491 83.9019C140.795 83.8059 140.028 83.638 139.404 83.5661C139.329 83.4665 139.24 83.3778 139.14 83.3022C139.071 83.4192 138.959 83.5051 138.828 83.5421C138.54 83.614 138.54 83.9019 138.157 83.8299C138.133 84.2616 138.444 84.0218 138.684 84.1897C138.085 84.5974 138.373 84.1177 138.037 84.1417C138.004 84.0849 137.953 84.0402 137.893 84.0143C137.832 83.9884 137.765 83.9826 137.701 83.9978C137.511 84.0426 137.332 84.1241 137.173 84.2376C137.029 84.4055 136.909 84.4055 136.789 84.2616C136.693 84.1612 136.567 84.094 136.429 84.0697C135.854 84.1657 135.686 84.4295 135.014 84.3815C134.078 84.3096 133.071 84.5734 132.135 84.4295C131.559 84.3576 130.6 83.4461 130.336 84.3336C129.928 83.686 129.304 83.2303 128.921 82.5827C130.696 82.4868 132.447 82.3668 134.222 82.2949C135.782 82.2469 137.461 82.4148 138.9 82.3428C140.244 82.2709 141.683 82.127 143.075 82.0071C144.562 81.8632 145.042 82.175 144.514 83.662ZM98.4535 83.7579C99.1012 83.9258 99.7009 83.5421 100.325 83.662C100.541 83.71 100.948 84.0697 101.044 84.0937C101.212 84.1177 101.716 83.734 101.932 83.686C103.379 83.4025 104.864 83.3701 106.322 83.5901C107.042 83.686 107.162 83.3502 107.785 83.2063C108.433 83.0384 109.369 83.1583 110.065 83.1104C111.696 82.9904 113.327 83.0864 114.934 82.9665C116.59 82.8465 118.245 82.7746 119.9 82.7026C121.028 82.6547 123.739 82.0071 124.674 82.8465C125.442 83.5421 124.458 84.7413 123.691 85.0051C123.115 85.221 122.827 84.7893 122.419 84.8133C121.939 84.8612 122.107 85.4369 121.676 84.9092C121.412 85.4369 119.708 85.221 119.229 85.245C118.173 85.3169 117.261 85.5328 116.542 84.5494C116.59 84.8373 116.638 85.1251 116.686 85.4129C115.726 84.9092 114.695 85.0771 113.879 85.245C113.471 85.3409 112.2 85.9405 111.768 85.6767C111.456 85.4848 112.008 85.197 111.48 85.0291C111.216 84.9572 110.736 85.3889 110.4 85.3649C109.489 85.293 109.753 84.6933 108.841 85.4609C108.697 85.3195 108.589 85.1454 108.526 84.9533C108.463 84.7612 108.448 84.5568 108.481 84.3576C107.833 84.9092 107.881 85.8446 106.706 85.6767C106.274 85.6048 106.178 85.173 105.962 85.0771C105.482 84.9092 105.435 85.221 105.003 85.4609C104.842 85.577 104.664 85.6662 104.475 85.7247C104.091 85.7727 104.043 85.5808 103.971 85.6048C103.707 85.6287 103.395 85.7727 103.084 85.6767C102.82 85.6048 102.724 85.1251 102.244 85.221C101.788 85.3169 101.788 85.6288 101.86 86.1084C101.404 86.0605 101.14 85.8206 100.804 85.5328C100.469 86.3243 99.7489 85.6767 99.3411 86.3483C98.8133 85.7247 98.5014 85.8926 97.8537 85.293C97.8777 85.5328 97.9257 85.7966 97.9497 86.0365C97.4459 85.9405 97.23 85.5808 96.7982 86.0605C96.3903 85.293 95.1189 86.3963 94.4712 85.6527C94.1833 86.5881 92.2881 86.3723 91.4724 86.3963C90.7527 86.4202 90.225 86.3483 89.5293 86.5162C88.8635 86.6877 88.1775 86.7683 87.4901 86.756C87.0707 86.6815 86.6438 86.6573 86.2187 86.6841C85.5469 86.756 84.9472 87.1158 84.2515 86.9479C83.1959 86.7081 82.5482 85.3169 83.7237 84.6933C84.5394 84.2856 85.9788 84.4295 86.8664 84.3576C88.3298 84.2376 89.9851 83.9498 91.4724 84.0937C92.6239 84.1897 93.6795 83.9258 94.831 83.8059C95.7186 83.71 97.158 83.5661 97.7338 84.4295C97.9977 84.1657 97.9737 83.638 98.4535 83.7579ZM82.3323 95.7263C82.1644 94.9348 88.9055 94.5031 89.5772 94.4551C90.9686 94.3352 92.384 94.2632 93.7994 94.2392C94.951 94.2153 96.0305 94.4311 97.182 94.2632C98.2616 94.0953 99.557 93.7595 100.493 94.527C100.637 93.4717 104.691 93.9994 105.458 93.9994C108.817 94.0234 112.032 94.0234 115.27 93.8075C117.118 93.6876 119.085 93.5197 120.956 93.6156C121.796 93.6636 122.467 93.8795 123.307 93.6876C123.859 93.5677 124.434 93.3038 124.962 93.6636C125.562 94.0953 125.826 95.5824 125.418 96.182C125.106 96.6377 124.842 96.5897 124.362 96.4938C123.619 96.3739 123.067 96.206 122.299 96.5178C122.144 96.5337 121.992 96.5658 121.844 96.6137C120.98 96.6857 119.804 97.2853 119.061 96.5897C119.349 96.6377 119.804 96.11 119.421 96.0621C119.133 96.0381 118.965 96.3259 118.749 96.4218C118.005 96.7576 117.597 96.6617 117.166 95.9421C116.254 96.7336 116.158 96.5178 115.75 95.5344C115.438 95.7743 115.366 96.3259 115.126 96.5178C115.102 96.5418 115.246 96.8775 115.054 96.8775C114.886 96.8536 114.839 96.5897 114.719 96.5897C114.647 96.5657 114.599 96.3499 114.527 96.3259C114.455 96.3019 114.359 96.4698 114.263 96.4458C114.023 96.4458 113.303 96.9735 113.567 96.23C113.183 96.7097 113.015 96.3979 112.895 95.9661C112.464 96.3019 112.032 96.6377 111.576 96.9495C111.384 96.3739 111.024 96.5418 110.592 96.7336C110.736 96.3499 110.64 95.9661 110.304 96.2539C110.113 96.4218 109.993 96.9015 109.777 97.1174C108.985 96.3019 108.697 96.5418 107.594 96.6377C107.162 96.6857 106.658 96.7576 106.274 96.4938C105.938 96.2779 105.746 95.4625 105.195 96.11C105.315 95.9661 105.123 97.0934 105.099 97.2613C104.856 97.091 104.645 96.88 104.475 96.6377C104.139 97.2853 103.299 96.7097 102.604 96.8296C101.5 97.0454 100.373 97.3812 99.3891 96.5657C99.3171 96.8296 98.5254 97.1654 98.5254 97.1654C98.5734 96.6857 98.8613 96.8536 98.2616 96.7816C98.1416 96.7576 98.0217 96.9735 97.9257 96.9975C97.5427 97.0334 97.1572 97.0334 96.7742 96.9975C95.2628 96.9495 93.8954 97.2853 92.408 97.4052C91.9043 97.4532 91.3045 97.5251 90.8487 97.3333C90.3689 97.1414 90.3689 96.9255 89.8891 97.0454C90.033 96.9975 89.5772 97.5012 89.6012 97.4772C89.5293 97.5251 89.2654 97.2853 89.1694 97.3093C89.1485 97.4163 89.1163 97.5208 89.0734 97.6211C88.9535 97.5971 88.8335 97.5971 88.7136 97.5731C88.4017 97.6211 88.0899 97.2853 87.802 97.2853C87.85 97.2853 86.9863 97.6211 87.0103 97.6451C86.3866 97.3333 86.5785 97.4292 85.7868 97.6211C85.0432 97.789 84.3235 97.765 83.5798 97.8609C81.3008 98.1727 82.5962 97.0694 82.3323 95.7263ZM80.4131 106.687C80.0053 106.112 81.1088 105.896 81.4447 105.848C82.0204 105.752 82.7881 105.92 83.172 105.848C83.7477 105.704 84.3235 105.368 84.9712 105.296C85.8108 105.176 86.6265 105.176 87.4661 105.104C87.7592 105.05 88.0559 105.018 88.3538 105.008C88.7616 105.032 88.9295 105.248 89.2414 105.248C89.7931 105.248 90.4888 104.912 91.0406 104.84C91.7603 104.768 92.504 104.721 93.2237 104.673C94.759 104.601 96.2704 104.625 97.8297 104.625C98.5254 104.625 100.397 103.905 100.756 104.721C101.236 104.097 102.484 104.193 103.179 104.169C104.403 104.145 105.602 104.025 106.826 103.953C107.881 103.905 109.033 104.121 110.065 103.977C110.64 103.881 110.808 103.713 111.456 103.785C111.936 103.857 112.655 103.593 113.063 103.713C113.039 103.713 113.567 104.049 113.399 104.049C113.591 104.049 113.567 104.169 113.783 104.097C114.047 104.025 113.927 103.689 114.479 103.569C115.342 103.377 116.47 103.593 117.357 103.545C118.221 103.497 119.085 103.473 119.948 103.473C120.356 103.473 120.836 103.377 121.22 103.449C121.412 103.497 121.82 103.737 121.963 103.713C122.419 103.641 122.659 103.329 123.259 103.353C123.931 103.385 124.604 103.369 125.274 103.305C125.946 103.257 126.042 103.162 126.378 103.713C126.713 104.265 126.809 104.984 126.186 105.368C126.57 105.344 127.073 105.872 126.594 106.16C126.306 106.351 125.73 105.944 125.394 105.968C124.962 106.016 124.626 106.232 124.171 106.232C123.691 106.256 123.187 106.375 122.707 106.375C122.203 106.375 121.844 106.16 121.364 106.256C120.956 106.327 120.908 106.687 120.404 106.375C120.164 106.232 120.116 105.68 119.78 105.68C119.325 105.68 119.517 106.256 119.253 106.543C119.181 105.704 118.533 107.095 118.269 106.064C118.029 106.399 117.142 106.879 116.734 106.615C116.35 106.375 116.47 105.8 116.302 105.392C116.038 106.112 115.318 106.879 115.366 105.56C115.006 105.992 114.071 105.92 114.311 106.687C114.023 106.687 113.951 106.28 113.711 106.232C113.495 106.208 113.327 106.375 113.303 106.351C113.423 106.351 112.967 106.519 112.967 106.519C113.279 106.447 112.08 106.351 112.272 106.351C111.984 106.351 111.648 106.567 111.336 106.567C111.048 106.567 110.736 106.447 110.448 106.423C109.681 106.327 109.849 106.495 109.369 106.735C109.201 106.831 109.153 106.975 108.889 106.951C108.697 106.927 108.625 106.687 108.625 106.687C108.361 106.663 108.553 106.567 108.145 106.615C108.097 106.687 108.049 106.783 108.001 106.855C107.94 106.946 107.847 107.011 107.741 107.037C107.635 107.064 107.522 107.05 107.426 106.999C106.826 107.119 104.859 107.671 105.051 106.663C104.739 106.807 104.451 106.951 104.139 107.095C104.019 106.28 102.364 107.359 102.004 107.431C101.524 107.503 101.5 107.311 101.044 107.215C100.972 107.191 100.804 107.455 100.613 107.431C100.133 107.335 100.037 107.287 99.9648 106.759C99.605 107.407 99.3171 107.119 98.6934 107.215C98.5494 107.239 98.4535 107.503 98.2616 107.455C98.1176 107.431 98.1176 107.167 98.0217 107.119C97.9257 107.095 97.9497 106.879 97.8057 106.855C97.6618 106.831 97.134 107.239 96.9901 107.311C96.6542 107.455 96.1025 107.695 95.7906 107.623C95.3828 107.527 95.5747 107.239 94.9989 107.263C94.0873 107.311 93.7275 108.078 93.1757 106.879C92.9118 107.359 92.9598 107.503 92.552 107.647C92.2641 107.767 91.4964 107.647 91.0886 107.623C89.4093 107.551 87.754 108.126 86.0747 107.982C85.331 107.91 84.7313 107.767 83.9876 107.886C83.2199 108.006 82.4523 108.198 81.6606 108.27C81.2528 108.318 80.4131 108.414 80.2212 107.91C80.1252 107.503 80.773 107.191 80.4131 106.687ZM83.6997 125.227C81.5167 126.69 79.6934 128.681 77.7023 130.384C75.6871 132.087 74.0798 133.958 72.2806 135.853C70.6013 137.579 69.0659 139.234 67.0508 140.554C65.7793 141.393 64.6278 142.4 63.3084 143.192C62.3248 143.768 60.8374 144.559 61.3172 142.76C61.821 140.913 62.7086 139.067 63.5003 137.34C64.6278 134.893 65.7553 132.471 66.9788 130.096C67.4346 129.209 67.6985 128.297 68.4182 127.578C69.2099 126.786 69.7616 125.779 70.6253 125.036C74.2477 121.918 79.7174 124.316 83.6997 125.227ZM90.5608 126.283C89.5772 126.81 88.4497 126.93 87.4182 127.266C86.5305 127.554 85.6909 128.082 84.7313 128.13C85.6189 127.482 86.3626 126.571 87.3462 126.067C88.4497 125.515 89.4573 125.923 90.5608 126.283ZM134.126 130.624C130.48 129.401 127.073 127.578 123.523 126.115C122.899 125.851 118.101 124.292 118.197 123.524C121.556 122.901 125.034 121.846 128.393 122.997C131.463 124.052 133.958 126.571 136.333 128.657C136.957 129.209 140.772 131.703 140.436 132.495C140.196 133.046 138.349 132.902 137.917 132.783C137.365 132.639 137.029 132.303 136.597 131.919C135.858 131.343 135.021 130.905 134.126 130.624ZM127.385 110.045C127.937 109.541 128.273 108.75 128.801 108.294C129.472 107.695 130.576 107.982 131.32 108.294C133.551 109.23 135.47 110.813 137.677 111.796C140.124 112.875 142.259 114.338 144.49 115.849C146.505 117.217 148.712 118.368 150.775 119.663C152.886 121.006 155.237 121.87 157.372 123.165C159.556 124.484 161.715 125.779 163.802 127.242C167.52 129.808 171.406 132.471 174.165 136.116C175.615 138.042 176.884 140.097 177.956 142.256C178.891 144.175 179.923 146.838 178.699 148.852C177.524 150.771 175.509 152.282 173.829 153.721C173.182 154.273 172.582 154.92 171.742 155.16C170.735 155.448 169.535 155.376 168.504 155.448C162.938 155.904 157.732 155.472 152.263 154.489C146.961 153.529 141.659 153.002 136.309 152.33C133.311 151.946 130.288 151.515 127.313 150.891C126.042 150.627 124.746 150.315 123.523 149.956C122.443 149.644 121.532 148.924 120.404 148.66C115.678 147.485 110.256 147.029 105.578 145.039C109.729 143.312 114.119 142.28 118.389 140.841C122.851 139.33 127.217 138.059 131.943 137.651C134.366 137.436 136.549 136.812 138.876 136.164C141.107 135.541 143.41 135.349 145.713 135.085C146.721 134.965 149.624 135.157 149.96 133.814C150.463 131.847 147.609 131.607 146.409 131.775C144.682 132.015 143.266 132.447 141.947 131.032C140.604 129.593 139.284 128.106 137.917 126.69C135.374 124.052 132.759 121.006 129.16 119.807C124.77 118.368 119.708 119.735 115.318 120.55C110.712 121.414 106.082 122.253 101.548 123.5C99.6769 124.028 97.254 125.179 95.3108 124.988C93.3916 124.796 91.2085 124.484 89.3613 123.932C88.5217 123.692 87.826 123.213 87.0823 122.781C86.0987 122.229 85.0432 121.87 84.0116 121.414C81.9245 120.526 79.8854 119.711 77.6063 119.375C75.7111 119.087 73.672 118.919 71.8248 119.567C70.0255 120.215 68.4182 121.558 67.1468 122.973C65.7793 124.508 64.6518 126.259 63.5243 127.986C62.9965 128.825 62.3248 129.545 61.773 130.36C61.2932 131.032 61.0294 131.799 60.5256 132.471C59.422 133.958 58.6544 135.853 57.9826 137.579C57.239 139.498 56.3993 141.777 56.5912 143.839C56.6632 144.631 56.7352 145.662 57.0231 146.406C57.4069 147.341 57.9587 147.317 58.7503 147.653C60.1177 148.253 60.5016 149.908 62.2768 149.596C63.9321 149.284 65.3715 147.917 66.571 146.838C68.1543 145.422 69.6657 143.935 71.1531 142.424C72.7365 140.89 74.1741 139.212 75.4472 137.412C75.927 136.692 76.3109 135.901 76.8866 135.253C77.6063 134.437 78.446 134.342 79.4295 134.006C88.0899 131.152 96.7982 128.393 105.722 126.499C107.857 126.043 110.017 125.467 112.128 124.868C114.359 124.22 115.51 124.916 117.357 126.115C121.196 128.657 125.754 130.456 130.024 132.111C131.367 132.639 133.527 132.663 134.582 133.694C128.345 134.653 122.395 136.476 116.374 138.299C113.399 139.186 110.4 139.978 107.426 140.841C104.451 141.705 101.572 142.808 98.6454 143.792C95.7186 144.751 92.6239 145.159 89.6732 146.046C86.678 146.92 83.6341 147.617 80.5571 148.133C77.4384 148.684 74.3197 149.332 71.177 149.836C69.7377 150.075 68.2983 150.291 66.8829 150.627C65.4915 150.939 64.148 151.682 62.7566 151.85C56.5193 152.618 50.4019 154.321 44.1885 155.28C39.5585 156 31.4739 157.007 28.4752 152.354C25.4525 147.677 29.1709 142.209 32.4815 138.875C34.5553 136.808 36.8295 134.952 39.2706 133.334C41.8615 131.583 44.3564 129.713 46.9713 127.962C52.8488 124.028 59.2301 120.814 65.5394 117.648C68.5622 116.137 71.4889 114.506 74.4397 112.827C75.903 112.012 76.7187 113.331 77.8702 114.242C78.7818 114.962 80.4611 116.713 81.7326 115.897C81.7805 116.185 81.8285 116.473 81.8765 116.785C82.2603 116.617 82.6202 116.449 83.004 116.281C83.2439 116.929 83.2199 117.336 83.9156 117.696C84.3475 117.912 85.2591 118.152 85.6669 117.792C85.7389 118.056 85.8348 118.32 85.9068 118.56C86.2666 118.536 86.3386 117.504 86.4106 117.264C87.0343 118.152 87.874 118.919 88.9535 119.159C88.9535 119.111 88.7856 118.368 88.7856 118.368C89.1214 118.152 89.5532 119.063 89.7452 119.255C90.3449 119.879 90.7048 119.783 91.3765 119.279C91.4244 119.327 91.6404 119.927 91.6883 119.903C91.8323 119.855 92.0962 119.327 92.1441 119.303C92.0962 119.975 93.4156 120.119 93.8954 119.975C93.7994 119.783 93.6795 119.567 93.5835 119.375C95.2148 119.159 95.8386 120.886 97.3979 120.79C98.5494 120.718 97.6138 120.478 98.2855 119.975C98.8613 119.543 98.9573 120.478 99.0052 120.454C99.1144 120.343 99.2037 120.213 99.2691 120.071C99.485 120.886 101.164 121.606 100.972 120.263C101.62 120.526 102.1 120.958 102.82 121.054C103.707 121.174 104.643 120.982 105.53 120.91C107.426 120.742 109.225 120.359 110.952 119.495C111.96 118.967 113.063 118.512 114.023 117.888C114.815 117.36 116.35 115.777 117.405 116.473C117.142 115.658 118.413 116.425 118.461 115.37C118.677 115.514 118.869 115.682 119.085 115.825C119.205 115.562 119.181 115.13 119.349 114.89C119.565 114.554 119.684 114.746 119.876 114.578C120.092 114.362 120.284 113.835 120.548 113.667C120.812 113.499 121.124 113.691 121.412 113.547C121.844 113.331 123.739 111.244 123.427 113.043C124.243 112.755 123.619 112.516 123.715 111.964C123.931 110.885 124.41 111.652 124.914 111.748C125.73 111.892 125.706 111.244 126.162 110.741C126.57 110.285 127.361 110.093 127.073 109.326C127.289 109.422 127.337 109.733 127.385 110.045ZM78.5419 86.852C77.8942 87.5715 77.4144 87.2597 76.7187 87.1638C76.6467 86.8999 76.5028 86.876 76.3349 87.0678C76.1252 87.183 75.8984 87.264 75.6631 87.3077C75.0874 87.4516 74.4876 87.3796 73.9119 87.5955C73.9359 87.4036 74.1278 87.0678 74.0078 86.8759C73.4081 87.2837 73.0482 87.5475 72.3046 87.5715C71.7048 87.5715 70.6733 87.1158 70.1695 87.6674C70.1455 87.4516 70.1455 87.2357 70.1215 87.0438C69.8847 87.1623 69.673 87.3251 69.4978 87.5235C69.5063 87.2294 69.4131 86.9414 69.2339 86.7081C68.85 87.5235 68.4182 87.5475 67.6505 87.2357C67.7465 87.2837 66.8829 86.756 66.9069 86.8999C66.643 85.7487 70.9851 85.8446 71.4409 85.7966C72.5924 85.6767 73.72 85.6048 74.8715 85.5088C75.951 85.4129 76.7667 85.245 77.5104 86.1564C77.1505 84.8133 80.3172 84.8852 78.5419 86.852ZM28.6191 66.5849C28.7391 68.5517 29.1709 70.6623 28.4032 72.5571C27.7795 74.0921 26.556 75.819 25.2365 76.8024C22.5257 78.8411 20.2227 76.3467 19.8388 73.5885C19.455 70.7343 20.2227 67.2325 22.6936 65.4577C24.157 64.4023 25.5964 64.4743 27.2997 64.8341C27.7075 64.906 28.3552 64.882 28.5711 65.2898C28.5951 65.3857 28.5471 66.5849 28.6191 66.5849ZM64.6998 92.8961C64.22 93.1359 63.7402 93.2798 63.3324 93.5917C63.1884 93.7116 63.1405 93.9514 62.9965 94.0474C62.7086 94.2152 62.3248 94.0953 62.0369 94.2392C61.5571 94.4791 61.2213 94.8149 60.6455 95.0307C59.8308 95.3741 59.0377 95.7665 58.2705 96.206C56.9208 96.8946 55.5354 97.511 54.1203 98.0528C53.4246 98.3406 51.4814 98.8923 51.5534 99.9236C51.3854 99.9716 51.2415 99.6118 50.9056 99.6598C50.4498 99.7077 49.8501 100.211 49.3943 100.355C48.5307 100.595 47.8349 100.619 47.8349 101.722C47.5471 101.531 47.4751 101.075 47.1153 101.003C46.7074 100.931 46.5155 101.387 46.1797 101.531C45.7958 101.698 45.292 101.531 44.9082 101.722C44.7325 101.901 44.5396 102.062 44.3324 102.202C44.1247 102.231 43.9136 102.222 43.7087 102.178C42.893 102.346 42.1254 102.658 41.2857 102.826C40.4701 102.994 39.9183 103.042 40.2542 104.001C39.3905 104.169 39.1746 103.257 38.215 103.593C37.0524 103.986 35.8667 104.306 34.6645 104.553C34.0408 104.673 33.3691 104.96 32.7214 105.032C32.2656 105.08 31.8337 104.912 31.3779 104.96C30.8262 105.032 30.3944 105.272 29.8426 105.272C29.3037 105.252 28.7667 105.196 28.2353 105.104C28.3067 105.315 28.4034 105.516 28.5232 105.704C28.1633 105.632 27.9954 105.2 27.6835 105.128C27.3716 105.056 27.0838 105.392 26.7959 105.32C26.6759 105.296 26.7479 104.936 26.556 104.864C26.3641 104.792 26.2921 104.864 26.1002 104.84C26.0282 104.84 25.2605 104.792 25.1406 104.864C24.9247 104.984 25.1406 105.2 25.0926 105.224C24.3729 105.752 24.3489 105.464 24.0371 104.912C23.5573 104.097 22.9815 104.601 22.1179 104.457C21.1583 104.289 20.3906 104.721 19.455 104.649C18.4234 104.577 17.2479 103.809 16.3363 103.377C14.3931 102.418 12.498 101.507 10.8666 100.044C7.676 97.1893 5.06111 93.6876 3.52576 89.6822C1.87047 85.3649 1.5586 80.8798 1.70254 76.2987C1.75761 73.5504 2.00612 70.8094 2.44622 68.096C2.7341 66.2252 2.80607 62.9153 4.91717 62.0518C5.27702 66.417 4.12551 70.8782 4.86919 75.2434C5.0851 76.5626 5.61288 78.2895 6.62045 79.2728C8.10782 80.7119 8.44367 78.6252 8.58761 77.4979C8.82751 75.3633 9.30731 73.2527 9.61917 71.142C9.95503 69.0314 10.1709 66.8727 10.6267 64.7861C10.7947 64.0186 12.1381 58.4302 13.1217 58.694C12.9298 62.7714 12.402 66.7768 12.378 70.8542C12.378 72.4852 12.2341 74.2121 12.45 75.843C12.5699 76.6825 13.3376 79.1289 14.657 78.937C15.8805 78.7452 14.5371 77.0183 14.4171 76.3467C14.1053 74.5718 14.4891 72.3892 14.777 70.6144C15.3048 67.3045 16.4803 63.8987 18.4234 61.1164C20.1507 58.622 22.8136 56.2715 26.0282 56.7033C27.3956 56.8951 28.4752 57.2309 29.1709 58.4781C29.7226 59.4615 31.8337 60.5888 30.6103 61.812C29.4827 62.9393 27.6595 62.0279 26.412 61.764C25.6459 61.6129 24.857 61.6201 24.0938 61.7851C23.3306 61.9501 22.6092 62.2694 21.9739 62.7234C19.7909 64.2584 18.5194 67.0167 18.1116 69.583C17.5598 73.0608 19.0232 82.151 24.4449 80.1123C28.0434 78.7691 30.7542 73.8763 30.4423 70.1587C30.3224 68.6716 29.7466 65.8414 31.8098 65.4337C34.4486 64.906 34.8325 67.8321 34.5686 69.7269C34.1847 72.4852 32.7214 75.0515 31.0421 77.2341C29.5787 79.1289 27.8994 80.3281 26.1482 81.8871C25.6204 82.3428 24.3009 83.3982 24.5408 84.2616C24.7807 85.197 26.8679 85.4848 27.6835 85.6288C31.7858 86.3963 36.4398 85.7007 40.542 85.1491C48.9865 84.0458 57.3109 81.3115 64.22 76.3227C64.5079 79.4167 64.8437 82.5107 64.9877 85.6048C65.0596 87.1158 65.0596 88.6508 65.2276 90.1379C65.3715 91.0972 65.7553 92.3684 64.6998 92.8961ZM41.3097 103.689C40.9739 103.857 41.3337 102.826 41.2378 103.162C41.7415 103.329 41.7655 103.521 41.3097 103.689ZM76.3109 66.2252C76.8386 65.6495 78.278 64.2584 78.7338 65.5776C78.9018 65.0259 78.9258 64.1865 79.5735 64.954C79.8374 64.0186 82.7161 64.1145 83.4119 64.0666C85.6909 63.9466 87.9939 63.8747 90.249 63.6348C94.927 63.1791 99.6769 63.419 104.355 63.395C105.372 63.355 106.39 63.3871 107.402 63.4909C108.385 63.6348 109.393 64.0426 110.376 63.8747C111.264 63.7547 111.84 63.4909 112.751 63.6108C113.826 63.7432 114.907 63.8153 115.99 63.8267C120.836 63.8027 125.682 63.9946 130.528 64.0186C131.463 64.0186 132.615 63.8267 133.479 64.2344C133.814 64.3783 134.174 64.882 134.414 64.93C134.702 65.002 134.534 64.5462 134.918 64.7381C135.422 65.002 135.038 65.8414 134.702 65.9853C134.894 65.9134 134.342 65.8174 134.39 65.8174C134.126 65.8414 133.886 66.0333 133.599 66.0333C133.167 66.0093 132.783 65.7455 132.423 65.5056C132.423 65.6016 132.615 66.2492 132.399 66.2731C132.207 66.2971 132.015 65.6735 132.015 65.5056C130.936 66.465 129.784 65.9374 128.441 66.0573C127.481 66.1532 125.49 66.7768 124.842 65.7934C124.82 66.002 124.727 66.1966 124.578 66.3451C124.386 66.6329 124.219 66.6089 124.075 66.2731C124.027 66.2731 123.571 66.3691 123.547 66.3691C123.211 66.3451 122.803 66.2252 122.467 66.2012C121.963 66.1532 122.059 66.537 121.628 66.537C121.412 66.537 120.836 66.2252 120.452 66.2012C119.78 66.1772 119.085 66.441 118.413 66.3691C117.957 66.3211 117.549 65.9374 117.094 65.9134C116.542 65.8894 116.35 66.3211 115.918 65.7215C115.822 65.6975 115.774 66.0573 115.726 66.0573C115.726 66.0573 115.294 66.1292 115.246 66.1292C115.074 66.2037 114.898 66.2678 114.719 66.3211C114.503 66.3211 114.359 66.1532 114.119 66.1532C113.711 66.1532 112.464 66.489 112.488 65.7695C111.072 66.2971 109.849 66.0813 108.409 66.2252C107.83 66.2618 107.248 66.2133 106.682 66.0813C105.89 65.9374 105.363 66.1292 104.571 66.1532C103.803 66.2012 103.563 65.8654 102.916 65.5776C102.652 65.4577 102.484 65.3138 102.172 65.3857C102.004 65.4337 102.124 65.7215 102.076 65.7455C101.812 65.8414 101.62 65.7455 101.236 65.7695C100.541 65.8174 100.277 66.3931 99.557 65.8414C99.7969 65.8174 100.037 65.7934 100.277 65.7455C99.605 65.4577 98.6934 65.3138 98.8613 66.3691C98.2855 66.2971 98.7893 65.8894 98.5014 65.7455C98.2136 65.6016 97.9017 65.8414 97.5419 65.9613C96.5823 66.2731 95.7906 66.1052 94.807 66.0573C93.6795 65.9853 91.0406 66.9207 90.249 65.7215C90.225 65.9613 89.9611 66.6809 89.6012 66.6329C89.4813 66.6329 89.8171 65.8894 89.8411 65.7934C89.6492 66.1772 88.8096 66.2731 88.4017 66.465C88.4497 66.2492 88.4977 66.0333 88.5457 65.8414C88.1618 66.2492 87.9699 66.0093 87.5141 66.1292C87.3222 66.2012 87.0343 66.6089 86.8664 66.6329C86.7816 66.5204 86.667 66.4339 86.5356 66.383C86.4042 66.3322 86.2612 66.319 86.1227 66.3451C85.9258 66.3012 85.7227 66.2931 85.523 66.3211C84.7313 66.3691 84.0116 66.8248 83.2199 66.513C82.5242 66.2492 82.2603 65.5776 81.8525 66.6569C81.7566 66.465 81.6366 66.2731 81.5406 66.0813C81.3967 66.2971 81.2768 66.489 81.1328 66.7049C80.605 66.3691 80.5811 66.1772 79.9813 66.2971C79.9115 66.3229 79.8372 66.3341 79.7629 66.33C79.6886 66.3259 79.616 66.3065 79.5495 66.2731C79.5255 66.3691 79.4775 66.489 79.4535 66.5849C79.4295 66.8488 79.3576 66.9447 79.2136 66.8488C79.1015 66.7992 78.9965 66.7347 78.9018 66.6569C78.5179 66.6809 78.0141 66.8008 77.5823 66.7288C77.4144 66.6809 76.3828 66.1532 76.3109 66.2252ZM88.4017 59.1497L88.5457 59.3656C87.8979 59.7013 87.754 59.5095 87.682 58.8379C87.9939 58.8379 88.0419 59.3895 88.4017 59.1497ZM88.7856 58.7659C89.0974 58.9098 89.4573 59.1737 89.7452 58.8139C89.9371 59.3656 88.4737 60.157 88.7856 58.7659ZM90.7767 59.0058C91.4244 59.4375 89.8651 59.1017 89.8651 59.1017C89.9801 58.9788 90.1356 58.9014 90.303 58.8838C90.4705 58.8661 90.6386 58.9095 90.7767 59.0058ZM96.3664 56.5594C96.5823 57.6866 97.206 57.6387 98.1896 57.135C99.629 56.3675 99.8689 55.1203 99.9888 53.6332C100.085 52.2181 100.253 51.6665 101.74 51.9543C102.772 52.1702 103.635 51.9783 104.667 51.9543C105.77 51.9303 106.154 52.0982 106.25 53.2255C106.346 54.3528 106.538 55.2162 107.378 56.1036C108.217 56.9911 109.345 57.5187 110.424 57.9984C110.976 58.2623 111.504 58.5261 112.128 58.5741C112.368 58.598 113.615 58.4302 113.639 58.8379C113.663 59.1257 111.936 59.9652 111.744 60.0851C110.951 60.5355 110.115 60.9051 109.249 61.1884C107.234 61.788 105.099 61.836 102.988 61.788C99.605 61.74 94.951 60.301 92.9358 57.3029C94.0633 57.063 95.2148 56.8232 96.3664 56.5594ZM96.0545 46.8696C95.5267 46.4138 95.1669 45.7423 94.735 45.2146C94.573 45.0125 94.3681 44.8486 94.1353 44.7349C93.9194 44.591 93.7755 44.7829 93.6075 44.4711C93.1277 43.6076 94.6151 42.4084 93.0318 42.0726C92.504 41.9527 91.2085 42.3844 91.0646 41.6169C90.8487 40.5376 92.9118 40.4657 93.3916 39.914C94.3512 38.8107 93.7035 36.9639 94.3032 35.7167C94.855 34.5175 96.2944 34.3016 97.4459 33.9418C99.0292 33.4382 100.637 33.1503 102.244 32.7426C103.371 32.4548 105.243 31.3275 106.274 32.3349C104.667 32.6946 105.602 33.2463 106.682 33.5581C107.913 33.8898 109.175 34.0908 110.448 34.1577C111.744 34.29 113.052 34.2416 114.335 34.0138C115.51 33.7739 116.83 32.7426 118.077 33.0064C117.381 34.2057 115.342 34.8532 114.095 35.165C113.471 35.3329 113.063 35.285 113.135 36.0765C113.207 36.844 113.879 37.6115 114.047 38.403C114.217 39.424 114.093 40.4726 113.687 41.425C113.327 42.4084 113.231 42.5283 113.543 43.4637C114.047 44.9268 112.967 46.5338 111.96 47.5891C107.881 51.8823 100.133 50.2754 96.0545 46.8696ZM107.618 32.095C107.45 32.2149 106.49 32.4788 106.514 32.095C106.586 31.5913 107.45 31.7832 107.618 32.095ZM109.825 21.8536C109.609 21.6857 108.961 21.7576 109.417 21.11C109.585 21.3979 109.705 21.6137 109.825 21.8536ZM94.5671 17.8002C94.8865 17.0741 95.1355 16.3192 95.3108 15.5456C95.3828 15.0419 95.2388 14.4903 95.9105 14.4183C95.0229 14.0346 95.0229 12.5235 94.9749 11.732C94.903 10.6527 94.5671 9.21366 95.0469 8.2063C95.5267 7.17496 96.1984 7.19895 96.3903 8.42217C96.4623 8.90186 96.1744 9.06975 96.1265 9.40554C96.0065 10.0771 96.2464 9.9332 96.6542 9.42952C96.8222 9.9332 96.8941 10.7247 97.6138 10.6767C97.5658 10.5328 97.302 10.221 97.3739 10.0531C97.5179 9.78929 98.2136 10.197 98.2855 10.245C98.9093 10.6767 99.0532 11.0845 98.5974 11.6361C99.2211 11.7081 98.6934 12.2597 99.1012 12.3796C99.7249 12.5955 99.2931 11.5642 99.2451 11.3963C99.5503 11.5123 99.8107 11.7223 99.9888 11.9959C100.131 12.1949 100.259 12.4032 100.373 12.6195C100.493 13.0272 100.756 13.1232 101.164 12.9313C101.956 13.1711 103.06 13.1471 103.779 13.5789C104.115 13.7707 104.211 14.2025 104.499 14.3704C104.811 14.5622 105.219 14.4663 105.554 14.5862C105.435 14.8501 105.53 15.0179 105.842 15.0179C106.089 15.0395 106.331 15.096 106.562 15.1858C106.732 15.059 106.917 14.9542 107.114 14.874C107.137 14.9263 107.171 14.9729 107.214 15.0106C107.257 15.0482 107.308 15.076 107.363 15.092C107.417 15.108 107.475 15.1118 107.532 15.1032C107.588 15.0945 107.642 15.0736 107.69 15.0419C108.286 15.1476 108.832 15.4419 109.249 15.8814C109.657 16.2651 109.321 16.2891 109.777 16.2412C109.969 16.2172 110.28 15.9054 110.712 15.9773C110.951 16.0238 111.185 16.0962 111.408 16.1932C111.506 16.2957 111.637 16.3595 111.778 16.3727C111.919 16.3859 112.061 16.3477 112.176 16.2651C112.607 16.481 112.655 16.8648 113.207 16.9127C113.807 16.9607 113.615 16.2172 114.023 17.2725C114.575 16.1692 114.791 17.9441 115.342 18.088C115.942 18.2319 115.99 17.7522 116.494 18.2799C116.638 18.4477 116.638 18.6876 116.806 18.8555C117.094 19.1193 117.453 19.0713 117.717 19.4551C117.573 19.2392 117.741 20.1986 117.741 20.1507C117.789 20.5584 117.405 21.0381 118.173 20.9901C118.173 21.0381 117.789 21.5658 117.741 21.4938C117.717 21.4218 117.717 21.3739 117.693 21.3019C117.621 21.3259 117.573 21.8536 117.597 21.9255C117.669 21.9255 117.693 21.8776 117.669 21.7816C117.549 22.1654 117.741 22.4292 117.501 22.789C117.357 23.0288 116.926 23.1967 116.71 23.3406C116.182 23.7004 115.654 24.0362 115.126 24.4199C113.903 25.2834 112.535 26.3387 111 26.5306C111.768 25.7631 116.23 22.9089 113.999 22.0694C113.474 21.9094 112.936 21.797 112.392 21.7336C111.864 21.6857 111.288 21.9975 110.712 21.8056C109.993 21.5658 110.256 20.8942 109.825 20.6543C108.889 20.1507 109.105 21.3499 108.817 21.6617C108.505 21.3499 108.577 21.182 108.097 21.158C107.594 21.134 107.498 21.5897 106.922 21.3019C106.13 20.9182 106.538 20.1267 105.435 20.1267C105.458 19.9588 105.626 19.4791 105.411 19.3352C105.123 19.7189 105.339 20.1267 105.075 20.4864C104.905 20.6801 104.678 20.8146 104.427 20.8702C103.923 21.0141 103.851 21.2779 103.947 20.5104C103.587 21.182 102.436 20.8942 101.764 20.8462C100.639 20.7428 99.5294 20.5177 98.4535 20.1746C97.4939 19.8389 96.9661 19.2872 96.1744 18.7835C95.8626 18.5917 95.7186 18.6636 95.2868 18.5437C94.783 18.5437 94.3512 18.3038 94.5671 17.8002ZM96.8701 6.0237C97.0381 5.92776 97.158 7.41481 96.9421 7.67864C96.5823 7.10301 95.9345 6.26355 96.8701 6.0237ZM97.3979 5.42409C97.9257 4.94439 97.5658 6.19159 97.4699 6.38347C97.278 6.26355 97.086 6.11964 96.8701 5.99972C97.11 5.87979 97.182 5.61596 97.3979 5.42409ZM117.429 3.43336C122.347 4.4647 127.193 6.38347 131.128 9.54944C134.702 12.4276 137.245 16.529 138.66 20.8702C140.124 25.3793 139.644 30.3921 136.141 33.8699C134.294 35.6927 131.871 36.796 129.544 37.8513C128.441 38.355 127.289 38.7867 126.162 39.2904C125.37 39.6502 124.386 40.2258 123.475 40.1299C123.931 39.6502 124.626 39.6262 125.178 39.3384C125.85 38.9786 126.426 38.2831 127.001 37.7794C127.577 37.2757 128.873 35.7167 129.784 36.1004C129.664 35.261 130.6 34.8772 131.032 34.3496C131.487 33.7739 131.511 33.1024 132.351 32.9105C131.463 32.2149 131.727 30.8958 131.919 29.9604C132.143 28.7795 132.296 27.586 132.375 26.3867C132.543 24.1561 132.687 21.3259 131.463 19.3592C131.056 18.7116 130.552 18.1359 130.192 17.4884C129.76 16.6969 129.856 16.0013 129.856 15.1139C129.064 15.6415 128.897 14.5622 128.585 14.0346C128.345 13.6508 128.009 13.411 127.937 12.9313C127.889 12.5715 128.273 12.4996 128.057 12.1398C127.793 12.3317 127.697 12.6435 127.553 12.9313C127.313 12.8353 127.601 12.4996 127.457 12.3796C127.457 12.3796 126.977 12.1638 127.001 12.2117C126.689 11.828 126.594 11.2044 126.45 10.7487C125.898 11.0365 125.994 10.9885 125.394 10.5328C125.137 10.3738 124.903 10.1801 124.698 9.95718C124.458 9.38155 124.866 9.71734 124.77 9.35757C124.434 8.32623 122.563 8.5181 122.395 6.98309C121.484 7.55872 121.124 6.74324 120.596 6.14362C120.044 5.54401 119.109 5.30416 119.157 4.36876L118.293 4.65658C118.437 3.76915 117.142 3.8411 116.662 3.38539C116.919 3.37831 117.175 3.39437 117.429 3.43336ZM118.173 57.9025C118.629 57.4948 118.485 58.0464 118.773 57.9744C119.013 57.9265 119.061 57.7346 119.301 57.6626C120.284 57.4228 121.772 57.7346 122.803 57.6626C124.003 57.6147 126.066 57.8545 126.642 59.2696C126.977 60.1091 126.45 59.8213 125.874 59.7733C125.441 59.7653 125.009 59.7813 124.578 59.8213C124.363 59.8452 124.146 59.8452 123.931 59.8213C123.833 59.7527 123.764 59.65 123.739 59.5334C123.115 59.4375 122.467 59.7973 121.772 59.8213C120.86 59.8452 120.044 59.6774 119.349 59.0538C119.061 59.4615 118.893 59.6774 118.389 59.7253C118.365 59.7253 117.885 59.5335 117.813 59.5095C117.717 59.4855 117.453 59.7013 117.261 59.6294C117.621 59.0538 117.669 58.3582 118.173 57.9025ZM180.811 62.7954C180.978 62.2437 181.098 61.6681 181.266 61.0924C183.521 63.6588 185.513 67.1126 186.4 70.4225C186.976 72.5811 187.887 76.4666 185.129 77.5699C182.874 78.4813 181.626 75.2434 181.05 73.6364C179.779 70.1347 179.779 66.3691 180.811 62.7954ZM79.5255 22.4292C79.5495 22.4292 78.0621 23.2926 78.5419 22.5971C78.7338 22.3093 79.5015 22.1174 79.8134 22.1174L79.5255 22.4292ZM78.1101 22.813C77.9422 22.9569 77.7742 23.1008 77.5823 23.2447L77.0785 22.4532C77.3904 22.2853 78.8058 22.1894 78.1101 22.813ZM77.0546 49.8197C76.7427 49.6038 76.5028 49.7237 76.4068 50.0835C76.4068 49.7237 76.5987 48.9082 76.8626 48.8123C77.0546 48.7404 76.2629 47.805 76.4788 47.5651C77.0546 47.8769 76.6947 48.1887 76.8626 48.6204C76.9346 48.8123 77.1505 48.9802 77.2225 49.1241C77.2944 49.364 77.6303 50.2274 77.0546 49.8197ZM75.5192 47.709C75.2073 47.781 75.7591 48.3086 75.7591 48.5485C75.7591 48.7164 75.5432 48.8603 75.4472 49.1001C75.2553 49.6278 75.5912 49.9876 75.0394 50.3713C75.0394 49.2201 74.2717 46.174 75.7591 45.6224C75.0394 45.0467 75.6392 44.3991 76.1909 45.0707C76.7427 45.7423 76.4068 47.4932 75.5192 47.709ZM74.7515 43.1759C74.4637 42.1446 73.576 41.7848 72.5924 41.8568C72.6404 41.3291 73.0243 40.5616 73.3121 41.521C73.4321 41.2332 73.5041 40.8734 73.7919 40.6815C74.2477 42.1206 76.5268 42.9121 75.1114 44.4471C74.9674 44.0394 74.8715 43.6076 74.7515 43.1759ZM72.0887 41.9287C66.8109 42.3125 59.422 43.4158 55.1998 39.3624C52.441 36.7241 52.6089 32.6227 54.816 29.6965C56.0874 28.0176 57.8147 26.8424 59.542 25.7391C60.1524 25.3337 60.8139 25.0111 61.5091 24.7797C61.626 24.7662 61.744 24.7914 61.845 24.8516C61.8641 24.7681 61.9022 24.69 61.9562 24.6235C62.0103 24.5569 62.079 24.5037 62.1569 24.4679C62.4448 24.324 62.8526 24.252 63.0205 23.9402C62.8602 24.5379 62.7479 25.1475 62.6846 25.7631L62.2528 25.2594C62.1329 26.3867 60.9574 25.6911 60.2617 25.835C60.7175 26.4586 61.0533 26.6985 61.0773 27.5379C60.7415 26.9143 60.0218 26.4826 59.3501 26.2907C59.7099 27.3461 59.9738 27.9936 59.614 29.1689C59.1821 28.929 59.1581 28.3294 58.6064 28.1855C58.4624 28.8811 58.4384 29.6486 58.2705 30.3201C56.9031 29.6965 57.047 31.3755 57.5988 32.1909C57.8867 32.6227 58.0306 33.1503 58.2945 33.5581C58.9422 34.5894 58.4385 33.0544 59.1581 33.1264C58.9902 34.2296 58.9422 34.3256 59.7339 35.1171C60.5256 35.9086 60.9094 36.9879 61.749 37.7074C61.9889 37.3956 61.6051 37.0838 61.5811 36.772C62.3488 36.8919 62.7326 37.6834 63.4763 36.9879C63.8122 37.6115 64.148 38.331 64.9397 38.4509C64.4359 37.4676 65.9233 38.1391 66.3071 38.2831C66.595 38.379 67.1228 38.4749 67.2427 38.5229C67.8904 38.7627 67.4346 38.331 67.8185 39.0985C68.3942 38.9306 68.6101 38.4509 69.2818 38.8587C69.8336 39.1705 69.8336 39.7461 69.9536 40.2978C70.0735 39.938 70.2175 39.5542 70.3614 39.1945C70.5053 39.2664 71.1291 39.938 71.0571 39.938C72.5685 39.866 72.5205 40.7775 72.0887 41.9287ZM64.6998 23.4366C64.9877 23.2207 65.3475 23.5085 65.6834 23.4366C66.1392 23.3406 66.4031 22.9569 66.9069 22.9089C66.7629 23.3646 66.499 23.3166 66.2831 23.6764C66.2112 23.7963 66.2351 24.0841 66.1872 24.1561C65.6114 24.7317 65.4195 24.252 64.8437 23.8203C64.8917 24.348 64.9877 24.5159 64.5079 24.6598C64.0521 24.7797 63.3084 24.324 63.0685 23.9402C63.2364 23.5565 64.34 23.6764 64.6998 23.4366ZM68.3223 22.5971C68.826 22.6451 68.2263 24.0841 67.5066 22.693C67.775 22.6361 68.048 22.6039 68.3223 22.5971ZM70.8412 22.3333C71.6089 22.1654 74.1998 21.4458 74.4876 22.6451C74.5356 22.6211 74.7275 21.9255 74.8235 22.0215C75.1833 22.3572 75.2313 22.789 75.1833 23.2687C74.7515 22.3572 74.8955 23.1487 74.6076 23.1008C74.5356 23.0768 74.4157 23.2207 74.2238 23.1727C73.9599 23.1008 73.7919 22.5491 73.624 22.3812C73.3601 22.765 73.0243 23.2447 72.4965 23.2207C72.1127 23.1967 71.5129 22.2133 71.9927 23.2926C71.7048 23.1967 71.369 22.9808 71.0571 23.0288C70.6973 23.0768 70.5053 23.4366 70.1695 23.4845C69.4258 23.6044 69.3058 22.8849 68.826 22.5012C69.4978 22.4292 70.1935 22.4532 70.8412 22.3333ZM75.5432 22.3093C75.5912 22.0694 76.2869 21.9735 76.4548 22.0454C76.8866 22.2373 76.7187 22.5012 76.6467 22.9089C76.3349 22.765 76.023 22.6211 75.7111 22.4532C76.1669 23.2207 75.3273 23.3166 75.5432 22.3093ZM206.983 66.3931C206.935 64.5942 206.887 62.7474 206.408 60.9965C206.096 59.7733 205.304 57.5667 203.817 57.3508C201.586 57.039 200.338 61.4522 199.714 62.9872C199.595 61.1884 199.69 59.2936 199.019 57.5907C198.467 56.2236 197.1 54.9284 195.924 56.4634C194.869 57.8305 194.677 59.8453 194.389 61.4762C194.029 63.5869 193.813 65.7455 193.549 67.8801C192.518 65.8894 192.35 63.6348 191.534 61.5721C190.766 59.6294 189.567 57.7826 188.415 56.0557C187.48 54.6406 186.328 53.3214 184.841 52.458C183.545 51.7145 181.29 50.899 180.067 52.1462C179.035 53.1775 179.203 54.5686 179.251 55.8878C179.275 56.4634 179.371 56.8712 178.843 57.159C178.579 57.3029 178.196 57.2309 177.908 57.3029C177.477 57.4281 177.077 57.6404 176.732 57.9265C174.069 59.8932 172.846 63.4429 172.486 66.6089C172.006 70.6144 173.566 74.0681 174.909 77.7378C175.125 78.3134 175.797 79.5606 175.701 80.2082C175.605 80.9278 174.693 80.9517 174.093 80.9517C172.235 80.9716 170.376 80.8835 168.528 80.6879C164.186 80.2802 159.867 78.1935 155.981 76.3227C155.261 75.9869 154.278 75.795 153.702 75.2434C153.15 74.7397 153.006 73.9242 152.551 73.3486C151.399 71.9335 150.655 70.7343 148.976 69.8708C147.249 69.0074 145.497 68.1919 143.794 67.2325C141.707 66.0573 139.788 64.5462 137.797 63.2271C134.078 60.7807 130.408 58.0704 126.474 55.9837C124.65 55.0243 122.611 54.8564 120.692 54.0649C118.845 53.2974 116.566 53.2974 114.647 53.7771C113.711 54.017 113.063 54.5686 112.2 54.9524C111.192 55.3841 110.352 54.9044 109.465 54.4007C108.097 53.6092 106.754 52.3381 108.697 51.4746C109.345 51.1868 110.184 51.0669 110.76 50.6351C111.384 50.1555 111.864 49.268 112.368 48.6444C113.471 47.3013 114.143 45.7423 115.75 44.9028C117.549 43.9674 119.66 43.7276 121.58 43.1279C123.643 42.4804 125.682 41.6889 127.697 40.9214C131.367 39.5542 135.158 38.0672 137.797 35.0211C140.076 32.4068 141.059 29.025 140.963 25.5952C140.771 18.5917 137.029 11.4682 131.631 7.07903C125.01 1.70647 116.614 -0.0923832 108.265 0.00355541C104.355 0.0515247 99.6769 0.555202 96.3903 2.92968C93.5595 4.99236 93.1037 8.59006 93.5116 11.828C93.6795 13.1471 94.2552 14.874 93.3436 16.0493C92.8159 16.6969 91.8803 16.8648 91.1846 17.2725C90.2969 17.7762 89.5293 18.2799 88.5217 18.5437C84.2755 19.695 79.8374 19.2872 75.4952 19.2153C68.2743 19.1193 60.8854 21.0621 55.5117 26.1468C51.1695 30.2482 49.8741 37.9952 55.1518 41.9767C59.422 45.2146 66.1392 44.8548 71.201 44.2792C72.7604 44.1113 73.8399 43.8475 73.8399 45.7663C73.8399 47.8529 73.5041 50.0355 74.0318 52.0982C74.8715 55.3361 77.9902 55.4081 80.725 54.7125C82.1682 54.3249 83.5797 53.8277 84.9472 53.2255C86.9623 52.386 88.8096 51.1388 90.8247 50.2754C92.1681 49.6997 93.1997 51.5466 94.3992 50.2754C94.6151 50.0355 94.6631 49.6758 94.9989 49.5558C95.5267 49.364 96.3903 50.0355 96.8701 50.2514C97.5658 50.5632 98.2616 50.803 98.5254 51.5705C98.7893 52.2901 98.6694 53.4174 98.4295 54.1129C97.9017 55.6479 96.4623 55.3361 95.1429 55.2402C92.8399 55.0723 90.5608 54.6885 88.2818 54.5207C86.2187 54.3768 84.2995 55.0004 82.5242 56.0077C78.8058 58.1423 75.7351 61.5242 72.5205 64.3064C70.8652 65.7455 69.2579 67.2805 67.4346 68.5517C66.643 69.1033 65.8033 69.583 65.1076 70.2786C64.4359 70.9501 64.3639 71.5498 64.124 72.4372C63.7162 74.0202 61.6531 74.8117 60.3816 75.6272C58.569 76.7633 56.6284 77.6811 54.6001 78.3614C50.3213 79.8634 45.9236 81.0027 41.4537 81.7672C39.2466 82.151 37.0635 82.4148 34.8325 82.6307C32.9133 82.8225 30.8742 83.3982 28.955 82.9185C29.5067 82.0311 30.4903 81.4794 31.258 80.7839C32.2338 79.8761 33.0958 78.8533 33.8249 77.7378C35.2643 75.6032 36.2958 73.3246 36.5118 70.7343C36.7277 68.4078 36.4878 65.6256 35.0724 63.6588C34.5926 62.9872 33.633 62.7954 33.2012 62.1718C32.7693 61.5721 32.9373 60.5168 32.6974 59.7973C32.0976 57.9984 30.2984 55.7679 28.7391 54.7125C27.0358 53.5853 24.5408 53.1535 22.5737 53.7532C18.9272 54.8564 16.6722 58.742 15.0169 61.9079C14.1053 59.9892 15.6406 57.135 13.8414 55.576C12.33 54.2568 11.1545 56.8232 10.6507 57.9265C8.29974 63.0832 7.74797 68.5517 6.76439 74.0681C6.35656 73.6604 6.57247 72.6531 6.59646 72.1734C6.66843 71.2859 6.66843 70.4225 6.66843 69.535C6.66843 67.3045 7.10025 65.0499 6.90833 62.8194C6.78838 61.5242 6.38055 58.8139 4.50935 59.2216C2.92602 59.5814 1.91845 61.836 1.41466 63.2031C0.694964 65.1698 0.527036 67.1366 0.575015 69.2232C0.622995 71.5258 0.191178 73.8043 0.0712292 76.1068C-0.144679 80.568 0.0712292 85.0051 1.34269 89.3224C3.01629 94.7621 6.28873 99.5723 10.7342 103.127C15.1797 106.682 20.5924 108.817 26.2681 109.254C28.4752 109.398 30.5863 109.134 32.7693 108.918C34.9284 108.702 37.0875 108.582 39.2226 108.318C43.9966 107.743 48.6506 106.232 52.9928 104.193C55.2718 103.114 57.4309 101.818 59.6619 100.667C60.5735 100.211 61.1733 99.6358 61.941 98.9882C62.7086 98.3646 62.9245 98.3166 63.7882 98.3166C63.5243 97.6451 64.268 97.4292 64.6038 96.9975C64.5759 97.2043 64.5599 97.4125 64.5559 97.6211C64.8197 97.0694 65.0357 97.0694 65.2516 97.6451C65.4675 97.0215 65.6354 96.3739 65.8753 95.7743C66.8589 96.2779 66.7869 97.4772 68.1063 96.5897C69.1859 95.8702 70.1935 95.0307 71.321 94.3352C73.8639 92.7282 76.047 90.6655 78.5899 89.0825C78.5899 90.6176 78.7099 92.1766 78.4939 93.7116C78.302 95.1746 77.7503 96.5178 77.3184 97.9329C76.5268 100.499 76.4548 103.257 75.5912 105.8C75.2313 106.855 74.2717 107.743 74.0078 108.774C73.72 109.829 74.3677 110.669 73.2881 111.34C72.5205 111.82 71.5849 112.036 70.7452 112.324C69.4498 112.779 68.2503 113.403 67.0028 113.931C61.1493 116.449 55.4157 118.991 49.994 122.373C44.8362 125.587 39.6064 128.897 34.8805 132.687C30.7782 135.997 26.628 140.266 25.6204 145.638C24.6608 150.867 27.2277 156.479 32.4335 158.182C35.1443 159.07 38.191 158.974 40.9979 158.998C44.0206 159.046 47.2352 158.302 50.2099 157.775C53.3526 157.223 56.4473 156.335 59.59 155.856C62.6127 155.376 65.3955 154.321 68.3462 153.649C71.5129 152.954 74.7515 152.57 77.9422 151.946C79.3816 151.658 80.773 151.251 82.2124 150.987C83.7957 150.699 85.379 150.603 86.9384 150.219C89.9611 149.476 92.8638 148.301 95.8866 147.605C97.254 147.293 98.5974 146.886 99.9648 146.598C101.212 146.334 102.196 145.614 103.467 146.214C104.475 146.694 105.291 147.485 106.25 148.037C107.498 148.756 108.817 149.404 110.113 150.028C112.727 151.275 115.438 152.162 118.173 153.098C121.052 154.081 123.859 155.208 126.857 155.88C129.904 156.551 133.023 156.743 136.093 157.271C142.347 158.334 148.678 158.871 155.021 158.878C158.26 158.902 161.475 158.518 164.713 158.566C167.568 158.614 170.039 159.238 172.654 157.727C176.828 155.304 181.65 151.658 181.554 146.358C181.458 141.561 178.579 136.98 175.869 133.19C172.582 128.585 167.904 125.347 163.322 122.181C158.428 118.8 152.958 116.473 147.801 113.523C145.186 112.012 142.763 110.381 139.908 109.326C138.54 108.822 137.221 108.222 135.878 107.671C134.798 107.239 133.239 106.975 132.303 106.256C131.727 105.8 131.679 105.104 131.511 104.409C131.146 102.916 130.681 101.45 130.12 100.02C129.149 97.215 128.45 94.3235 128.033 91.3851C127.625 88.5789 126.713 85.6527 127.193 82.7986C130.264 85.7727 133.431 88.6508 136.597 91.529C137.773 92.6083 138.948 93.7356 140.124 94.8149C141.011 95.6303 142.139 96.8296 143.362 97.0694C144.946 97.3812 144.37 95.6303 145.45 95.3425C146.121 95.1746 148.112 96.8775 148.64 97.2133C151.975 99.324 155.669 100.667 159.34 102.106C163.178 103.617 167.136 104.96 171.287 105.344C175.131 105.67 179.003 105.28 182.706 104.193C190.047 102.106 195.468 97.1893 199.427 90.8094C203.961 83.59 207.247 75.0755 206.983 66.3931Z" fill="#1C0F13"/>
<path fill-rule="evenodd" clip-rule="evenodd" d="M94.6405 50.5392L94.616 50.5639C94.6405 50.5639 94.6405 50.5639 94.6405 50.5392Z" fill="#1C0F13"/>
<path fill-rule="evenodd" clip-rule="evenodd" d="M94.9997 50.6352C94.9693 50.4057 94.913 50.1804 94.8318 49.9636C94.5919 50.3474 94.376 50.5153 94.6879 50.923C94.7862 50.8212 94.8903 50.7251 94.9997 50.6352Z" fill="#1C0F13"/>
<path fill-rule="evenodd" clip-rule="evenodd" d="M111.961 105.776C112.224 105.488 111.769 105.368 111.577 105.368C111.601 105.68 111.433 106.423 111.865 106.567C111.808 106.439 111.787 106.298 111.804 106.158C111.821 106.019 111.875 105.887 111.961 105.776Z" fill="#1C0F13"/>
<path fill-rule="evenodd" clip-rule="evenodd" d="M104.763 45.1667C104.308 46.0781 105.339 46.3419 105.939 45.9102C106.395 45.5744 106.659 44.735 106.731 44.2073C106.971 42.4804 105.747 40.8255 105.147 39.2665C104.979 38.8587 104.787 37.4916 104.284 37.4676C103.708 37.4197 103.66 38.6908 103.66 39.0026C103.676 39.9945 103.863 40.9762 104.212 41.9048C104.5 42.9121 105.315 44.1114 104.763 45.1667Z" fill="#1C0F13"/>
<path fill-rule="evenodd" clip-rule="evenodd" d="M106.995 41.545C108.794 43.1519 110.233 40.4896 110.113 38.9067C110.089 38.5229 109.825 37.0838 109.082 37.6115C108.698 37.8753 109.034 38.7388 108.842 39.0985C107.978 40.9214 107.163 38.0912 106.563 37.8753C105.867 37.6115 105.795 38.5229 105.795 39.0266C105.801 39.5081 105.912 39.9825 106.119 40.4173C106.326 40.852 106.625 41.2368 106.995 41.545Z" fill="#1C0F13"/>
<path fill-rule="evenodd" clip-rule="evenodd" d="M100.469 41.7848C100.901 41.1132 101.405 40.2258 101.477 39.4343C101.573 38.1871 100.853 38.307 100.254 39.1705C99.8217 39.7941 99.5098 40.8254 98.5982 40.5616C97.4467 40.2498 97.8065 38.6908 97.1588 37.9713C95.5035 40.1299 98.5742 44.7589 100.469 41.7848Z" fill="#1C0F13"/>
<path fill-rule="evenodd" clip-rule="evenodd" d="M102.892 48.4526C103.564 48.5965 105.315 48.5485 104.716 47.5172C103.948 46.222 101.405 48.1408 102.892 48.4526Z" fill="#1C0F13"/>
<path fill-rule="evenodd" clip-rule="evenodd" d="M126.378 9.90924C126.498 9.54947 126.33 9.47751 126.043 9.1897C125.779 9.42954 126.115 9.71736 126.378 9.90924Z" fill="#1C0F13"/>
<path fill-rule="evenodd" clip-rule="evenodd" d="M138.901 76.0829C139.333 76.1548 139.477 75.915 139.333 75.3873C138.613 75.3394 138.469 75.5792 138.901 76.0829Z" fill="#1C0F13"/>
<path fill-rule="evenodd" clip-rule="evenodd" d="M114.743 19.623C115.223 19.8389 115.055 20.2946 115.031 20.7023C115.271 20.4385 115.799 19.9348 115.583 19.5271C115.271 18.9274 114.431 19.4791 114.743 19.623Z" fill="#1C0F13"/>
<path fill-rule="evenodd" clip-rule="evenodd" d="M98.1184 12.0199L97.9025 11.5881C97.5907 11.828 97.1349 12.4756 97.6147 12.7874C97.8045 12.5466 97.9731 12.2898 98.1184 12.0199Z" fill="#1C0F13"/>
<path fill-rule="evenodd" clip-rule="evenodd" d="M103.972 16.2891C104.572 16.7688 104.284 15.3058 104.26 15.1859C104.188 15.3537 103.66 16.0493 103.972 16.2891Z" fill="#1C0F13"/>
<path fill-rule="evenodd" clip-rule="evenodd" d="M103.636 15.5456L103.492 15.1859C103.252 15.4017 102.94 15.8814 103.348 16.1452C103.468 15.9577 103.565 15.7564 103.636 15.5456Z" fill="#1C0F13"/>
<path fill-rule="evenodd" clip-rule="evenodd" d="M107.498 20.5584L107.642 20.7023C107.834 20.2946 107.618 20.0068 107.234 19.9828C107.262 20.1971 107.354 20.3979 107.498 20.5584Z" fill="#1C0F13"/>
<path fill-rule="evenodd" clip-rule="evenodd" d="M91.2334 65.9854C91.4649 65.8206 91.6816 65.636 91.8811 65.4337C91.1614 65.002 91.5932 65.9374 90.7296 65.3618C90.5617 65.6016 90.8495 66.1772 91.2334 65.9854Z" fill="#1C0F13"/>
<path fill-rule="evenodd" clip-rule="evenodd" d="M121.173 105.608C121.437 105.2 121.485 105.2 121.125 104.888C120.813 105.392 120.837 105.272 121.173 105.608Z" fill="#1C0F13"/>
<path fill-rule="evenodd" clip-rule="evenodd" d="M64.5327 39.4104C64.6767 39.5543 64.8206 39.7222 64.9645 39.8661C65.0365 39.6742 65.4203 39.0986 65.1564 38.9067C64.9655 39.0945 64.7566 39.2632 64.5327 39.4104Z" fill="#1C0F13"/>
<path fill-rule="evenodd" clip-rule="evenodd" d="M69.7864 40.9453C69.5465 40.8974 68.9948 40.7295 68.8508 40.9453C69.1867 41.2331 69.9783 40.9693 69.7864 40.9453Z" fill="#1C0F13"/>
<path d="M52 168C52 167.542 53.2418 167.105 55.5 166.705C56.2297 166.575 56.0656 166.826 57 166.705C58.8139 166.469 61.9991 165.874 64.5 165.675C66.337 165.529 67.8444 165.797 70 165.675C73.4781 165.477 77.8423 164.908 82 164.782C82.8221 164.757 83.1557 164.522 84 164.5C84.3317 164.491 85.165 164.695 85.5 164.687C90.5189 164.566 95.9009 164 101.5 164C103.703 164 105.873 164.51 108 164.53C108.334 164.533 108.668 164.536 109 164.54C109.671 164.547 113.338 163.991 114 164C117.295 164.045 117.473 164.678 120.5 164.767C127.677 164.978 133.999 165.305 139 165.715C139.514 165.757 140.014 165.994 140.5 166.038C141.197 166.101 141.864 165.972 142.5 166.038C147.866 166.598 151 167.273 151 168C151 168.49 149.574 168.957 147 169.381C146.537 169.457 146.036 169.532 145.5 169.605C145.027 169.67 144.527 169.733 144 169.795C140.227 170.241 136.091 170.712 130 171C129.344 171.031 127.677 170.972 127 171C124.023 171.127 123.543 171.232 120.201 171.313C119.704 171.325 116.503 170.989 116 171C115.503 171.011 111.158 171.303 110.655 171.313C106.512 171.393 105.999 171.313 101.5 171.313C97.3618 171.313 93.3421 171.464 89.5 171.396C86.005 171.335 79.1569 172.111 76 172C71.1649 171.83 70.2785 170.742 66.5 170.475C65.8129 170.426 65.6459 170.207 65 170.156C64.3088 170.101 63.1418 170.214 62.5 170.156C61.803 170.093 59.1358 169.566 58.5 169.5C53.1345 168.94 52 168.727 52 168Z" fill="#1C0F13"/>
</svg>
